<?xml version="1.0" encoding="utf-8"?>
<!-- Svg Vector Icons : http://www.onlinewebfonts.com/icon -->
<!DOCTYPE svg PUBLIC "-//W3C//DTD SVG 1.1//EN" "http://www.w3.org/Graphics/SVG/1.1/DTD/svg11.dtd">
<svg version="1.1" xmlns="http://www.w3.org/2000/svg" xmlns:xlink="http://www.w3.org/1999/xlink" x="0px" y="0px" viewBox="0 0 256 256" enable-background="new 0 0 256 256" xml:space="preserve">
<metadata> Svg Vector Icons : http://www.onlinewebfonts.com/icon </metadata>
<g><g><path fill="#000000" d="M163.1,144.1h-96c-1.8,0-3.2,2.3-3.2,5.2c0,2.9,1.4,5.2,3.2,5.2h96c1.7,0,3.2-2.3,3.2-5.2C166.3,146.5,164.9,144.1,163.1,144.1L163.1,144.1z"/><path fill="#000000" d="M163.1,120h-96c-1.8,0-3.2,2.3-3.2,5.2c0,2.9,1.4,5.2,3.2,5.2h96c1.7,0,3.2-2.3,3.2-5.2C166.3,122.3,164.9,120,163.1,120L163.1,120z"/><path fill="#000000" d="M163.1,95.9h-96c-1.8,0-3.2,2.3-3.2,5.2s1.4,5.2,3.2,5.2h96c1.7,0,3.2-2.3,3.2-5.2C166.3,98.2,164.9,95.9,163.1,95.9L163.1,95.9z"/><path fill="#000000" d="M231.3,39.7c0-16.4-13.5-29.7-30-29.7H54.3c-0.1,0-0.1,0-0.2,0c-0.1,0-0.1,0-0.2,0c-16.1,0-29.2,13.3-29.2,29.7v173.9c0,2.2,0.9,4.3,2.4,5.8l23.9,23.4c3.1,3,7.9,3,11,0l24.3-23.9l25.3,24.8c3.1,3,7.9,3,11,0l25.3-24.8l25.3,24.8c1.5,1.5,3.5,2.3,5.5,2.3c2,0,4-0.7,5.5-2.3l22.9-22.4c1.5-1.5,2.4-3.6,2.4-5.8V68.4C222,65,231.3,53.4,231.3,39.7L231.3,39.7z M179.9,229.2l-25.9-25.4c-3.1-3.1-8.1-3.1-11.2,0L117,229.2l-25.9-25.4c-3.1-3.1-8.1-3.1-11.2,0L55,228.3l-16.4-16.1V37.7c0-7.7,6.2-14,13.8-14c0.1,0,0.1,0,0.2,0c0.1,0,0.1,0,0.2,0h0c8,0,14.5,6.3,14.5,14c0,7.7-6.5,14-14.5,14c-4.5,0-8.1,3.7-8.1,8.2s3.6,8.2,8.1,8.2h142.5v146L179.9,229.2L179.9,229.2z M198,55L72.1,54.2c7.7-3.7,7.7-11.2,7.7-13.4c0-8.4-1.3-12.1-3.5-16.2l126-0.2c7.9,0,16.2,8.2,16.2,15.8c0,7.6-8.4,14.5-16.3,14.5L198,55z"/></g></g>
</svg>